HIERARCHY
ROOT Hips
{
	OFFSET 0.000000 88.474243 0.000000
	CHANNELS 6 Xposition Yposition Zposition Zrotation Yrotation Xrotation 
	JOINT Hips_Spine
	{
		OFFSET 0.000000 0.000000 0.000000
		CHANNELS 3 Zrotation Yrotation Xrotation
		JOINT Spine
		{
			OFFSET 0.005100 8.711998 -0.691000
			CHANNELS 3 Zrotation Yrotation Xrotation
			JOINT Spine1
			{
				OFFSET -0.009200 8.660301 -1.275000
				CHANNELS 3 Zrotation Yrotation Xrotation
				JOINT Spine2
				{
					OFFSET 0.006300 9.852501 -1.857000
					CHANNELS 3 Zrotation Yrotation Xrotation
					JOINT Spine2_Neck
					{
						OFFSET 0.000000 0.000000 0.000000
						CHANNELS 3 Zrotation Yrotation Xrotation
						JOINT Neck
						{
							OFFSET 0.016300 11.420799 -0.263300
							CHANNELS 3 Zrotation Yrotation Xrotation
							End Site #name: Head
							{
								OFFSET -0.019200 9.262405 2.362500
							}
						}
					}
					JOINT Spine2_LeftShoulder
					{
						OFFSET 0.000000 0.000000 0.000000
						CHANNELS 3 Zrotation Yrotation Xrotation
						JOINT LeftShoulder
						{
							OFFSET 5.616900 6.732201 -0.345700
							CHANNELS 3 Zrotation Yrotation Xrotation
							JOINT LeftArm
							{
								OFFSET 10.664888 -0.183372 -2.440700
								CHANNELS 3 Zrotation Yrotation Xrotation
								JOINT LeftForeArm
								{
									OFFSET 27.459126 0.000000 0.000000
									CHANNELS 3 Zrotation Yrotation Xrotation
									End Site #name: LeftHand
									{
										OFFSET 21.306858 0.000000 0.000000
									}
								}
							}
						}
					}
					JOINT Spine2_RightShoulder
					{
						OFFSET 0.000000 0.000000 0.000000
						CHANNELS 3 Zrotation Yrotation Xrotation
						JOINT RightShoulder
						{
							OFFSET -5.580300 6.737503 -0.344400
							CHANNELS 3 Zrotation Yrotation Xrotation
							JOINT RightArm
							{
								OFFSET -10.679335 -0.188484 -2.383900
								CHANNELS 3 Zrotation Yrotation Xrotation
								JOINT RightForeArm
								{
									OFFSET -27.503529 0.000000 0.000000
									CHANNELS 3 Zrotation Yrotation Xrotation
									End Site #name: RightHand
									{
										OFFSET -21.306808 0.000000 0.000000
									}
								}
							}
						}
					}
				}
			}
		}
	}
	JOINT Hips_LeftUpLeg
	{
		OFFSET 0.000000 0.000000 0.000000
		CHANNELS 3 Zrotation Yrotation Xrotation
		JOINT LeftUpLeg
		{
			OFFSET 6.857700 -6.739601 0.312100
			CHANNELS 3 Zrotation Yrotation Xrotation
			JOINT LeftLeg
			{
				OFFSET -0.367590 -34.731552 -4.572400
				CHANNELS 3 Zrotation Yrotation Xrotation
				End Site #name: LeftFoot
				{
					OFFSET 0.367590 -34.656704 -6.067400
				}
			}
		}
	}
	JOINT Hips_RightUpLeg
	{
		OFFSET 0.000000 0.000000 0.000000
		CHANNELS 3 Zrotation Yrotation Xrotation
		JOINT RightUpLeg
		{
			OFFSET -6.876100 -6.733299 0.301000
			CHANNELS 3 Zrotation Yrotation Xrotation
			JOINT RightLeg
			{
				OFFSET 0.347353 -34.795158 -4.515900
				CHANNELS 3 Zrotation Yrotation Xrotation
				End Site #name: RightFoot
				{
					OFFSET -0.347353 -34.589367 -6.070300
				}
			}
		}
	}
}
MOTION
Frames: 6
Frame Time: 0.041667
-0.290634 -0.096938 -1.147545 -1.474771 -2.441203 -0.996205 0.000000 -0.000000 0.000000 -0.971583 0.751011 5.098003 -1.209399 -0.013916 2.830610 0.000000 0.000000 0.000000 -1.386219 -0.399366 1.750921 3.982704 -3.228068 9.496069 -1.308469 -0.410381 2.918720 -3.728771 6.547612 -0.667811 -71.381028 -4.756416 30.882710 0.108250 -6.882702 0.212757 -1.651197 -0.298896 2.484463 8.672731 -3.180511 0.415136 48.231753 36.042047 -6.886617 179.323311 41.901103 -179.769552 0.000000 -0.000000 -0.000000 1.678324 12.285178 -16.967611 2.999689 2.618579 18.203232 0.000000 -0.000000 0.000000 -0.984166 -10.165322 -12.351863 0.008302 -1.507637 17.279888 
-0.339238 -0.102368 -1.177071 -1.410196 -2.423887 -1.000859 0.000000 -0.000000 0.000000 -0.955529 0.734867 5.054157 -1.177412 -0.026126 2.832791 0.000000 0.000000 0.000000 -1.345239 -0.414661 1.766232 3.928244 -3.190647 9.495773 -1.273326 -0.428769 2.928141 -3.779183 6.493771 -0.663048 -71.520632 -5.005910 30.625820 0.109023 -6.609519 0.210885 -1.612345 -0.321994 2.496938 8.962650 -3.214325 0.407397 48.775888 35.729895 -6.180665 179.332977 42.147903 -179.770459 0.000000 -0.000000 -0.000000 1.681407 12.290706 -16.937010 2.977941 2.573001 18.147455 0.000000 -0.000000 0.000000 -0.983293 -10.164991 -12.332582 0.007891 -1.517960 17.257136 
-0.381764 -0.107903 -1.206839 -1.349993 -2.409923 -1.005762 0.000000 -0.000000 0.000000 -0.941311 0.724205 5.003539 -1.144245 -0.032603 2.829316 0.000000 0.000000 0.000000 -1.302602 -0.423715 1.782362 3.865269 -3.146641 9.493870 -1.237130 -0.440059 2.936793 -3.831430 6.433106 -0.657867 -71.647843 -5.253330 30.371578 0.109535 -6.326109 0.208673 -1.572494 -0.335958 2.507809 9.245929 -3.240386 0.397937 49.355752 35.383178 -5.419460 179.345154 42.417025 -179.769419 0.000000 -0.000000 -0.000000 1.681893 12.299340 -16.907331 2.958275 2.529843 18.087401 0.000000 -0.000000 0.000000 -0.983130 -10.162034 -12.311909 0.009667 -1.524909 17.231219 
-0.418134 -0.113480 -1.236839 -1.293830 -2.401003 -1.011360 0.000000 -0.000000 0.000000 -0.925681 0.715007 4.943437 -1.110175 -0.034441 2.825969 0.000000 0.000000 0.000000 -1.259100 -0.426874 1.797408 3.791034 -3.097610 9.484746 -1.200360 -0.444316 2.945079 -3.887767 6.365175 -0.652192 -71.776414 -5.511269 30.081946 0.109707 -6.037769 0.206764 -1.532232 -0.346533 2.519504 9.490423 -3.257252 0.383534 49.933899 35.006402 -4.641034 179.358381 42.669285 -179.768761 0.000000 -0.000000 -0.000000 1.682688 12.311054 -16.876795 2.939947 2.491231 18.026215 0.000000 -0.000000 0.000000 -0.984289 -10.156838 -12.292154 0.009630 -1.534129 17.206385 
-0.448145 -0.119029 -1.266966 -1.241620 -2.393087 -1.017985 0.000000 -0.000000 0.000000 -0.909244 0.702737 4.879789 -1.073874 -0.034296 2.821354 0.000000 0.000000 0.000000 -1.213631 -0.429220 1.815186 3.708753 -3.045213 9.480505 -1.161848 -0.443781 2.951910 -3.957440 6.294748 -0.647249 -71.908337 -5.761102 29.765040 0.108936 -5.755173 0.204702 -1.490094 -0.356385 2.531504 9.755452 -3.269091 0.369496 50.534786 34.587653 -3.810486 179.374716 42.949967 -179.767209 0.000000 -0.000000 -0.000000 1.684204 12.318674 -16.848439 2.925156 2.463640 17.970452 0.000000 -0.000000 0.000000 -0.988142 -10.151690 -12.273663 0.010906 -1.542590 17.184619 
-0.471990 -0.124538 -1.297246 -1.193355 -2.387386 -1.025124 0.000000 -0.000000 0.000000 -0.892588 0.690734 4.812930 -1.036064 -0.033183 2.818143 0.000000 0.000000 0.000000 -1.166432 -0.431406 1.835195 3.620894 -2.988479 9.467861 -1.121967 -0.443032 2.959904 -4.019401 6.221921 -0.640758 -72.038634 -6.019857 29.438935 0.107483 -5.448872 0.201466 -1.446591 -0.365385 2.543601 10.038357 -3.284187 0.353714 51.177160 34.084762 -2.885306 179.394608 43.298953 -179.763855 0.000000 -0.000000 -0.000000 1.685259 12.326893 -16.820513 2.914570 2.445731 17.920809 0.000000 -0.000000 0.000000 -0.993774 -10.144266 -12.254293 0.012604 -1.548022 17.161740 
